<?xml version="1.0" encoding="us-ascii" standalone="no"?><svg xmlns="http://www.w3.org/2000/svg" xmlns:xlink="http://www.w3.org/1999/xlink" contentStyleType="text/css" height="394px" preserveAspectRatio="none" style="width:1024px;height:394px;background:#FFFFFF;" version="1.1" viewBox="0 0 1024 394" width="1024px" zoomAndPan="magnify"><defs/><g><!--class RSJSONViewer--><g id="elem_RSJSONViewer"><rect codeLine="1" fill="#F1F1F1" height="97.4648" id="RSJSONViewer" rx="2.5" ry="2.5" style="stroke:#181818;stroke-width:0.5;" width="136" x="673" y="7"/><ellipse cx="691.6" cy="23" fill="#F1F1F1" rx="11" ry="11" style="stroke:#181818;stroke-width:1.0;"/><path d="M691.3334,24.063 Q689.4823,23.3574 688.8266,22.5813 Q688.1708,21.8052 688.1708,20.4937 Q688.1708,18.8086 689.2499,17.8457 Q690.329,16.8828 692.2133,16.8828 Q693.0683,16.8828 693.9232,17.0779 Q694.7782,17.2729 695.6166,17.6548 L695.6166,20.0454 Q694.828,19.4893 694.0146,19.1987 Q693.2011,18.9082 692.4042,18.9082 Q691.516,18.9082 691.0429,19.2651 Q690.5697,19.6221 690.5697,20.2861 Q690.5697,20.8008 690.9142,21.137 Q691.2587,21.4731 692.3544,21.8799 L693.4086,22.2783 Q694.9027,22.8262 695.6083,23.731 Q696.3139,24.6357 696.3139,26.0137 Q696.3139,27.8896 695.2057,28.8152 Q694.0976,29.7407 691.8563,29.7407 Q690.935,29.7407 690.0094,29.5208 Q689.0839,29.3008 688.2206,28.8691 L688.2206,26.3374 Q689.2001,27.0347 690.1173,27.375 Q691.0346,27.7153 691.9311,27.7153 Q692.8358,27.7153 693.3339,27.3044 Q693.8319,26.8936 693.8319,26.1548 Q693.8319,25.5986 693.4999,25.1794 Q693.1679,24.7603 692.537,24.5195 Z " fill="#000000"/><text fill="#000000" font-family="sans-serif" font-size="14" lengthAdjust="spacing" textLength="96" x="706.4" y="28.291">RSJSONViewer</text><line style="stroke:#181818;stroke-width:0.5;" x1="674" x2="808" y1="39" y2="39"/><rect fill="none" height="6" style="stroke:#C82930;stroke-width:1.0;" width="6" x="681" y="49.7441"/><text fill="#000000" font-family="sans-serif" font-size="14" lengthAdjust="spacing" textLength="99" x="693" y="56.5352">jsonData: Data</text><ellipse cx="684" cy="69.2324" fill="none" rx="3" ry="3" style="stroke:#038048;stroke-width:1.0;"/><text fill="#000000" font-family="sans-serif" font-size="14" lengthAdjust="spacing" textLength="74" x="693" y="73.0234">body: View</text><line style="stroke:#181818;stroke-width:0.5;" x1="674" x2="808" y1="79.9766" y2="79.9766"/><ellipse cx="684" cy="93.7207" fill="#84BE84" rx="3" ry="3" style="stroke:#038048;stroke-width:1.0;"/><text fill="#000000" font-family="sans-serif" font-size="14" lengthAdjust="spacing" textLength="110" x="693" y="97.5117">init(json: String)</text></g><!--class JSONElement--><g id="elem_JSONElement"><rect codeLine="7" fill="#F1F1F1" height="80.9766" id="JSONElement" rx="2.5" ry="2.5" style="stroke:#181818;stroke-width:0.5;" width="246" x="479" y="181.47"/><ellipse cx="553.75" cy="197.47" fill="#B4A7E5" rx="11" ry="11" style="stroke:#181818;stroke-width:1.0;"/><path d="M550.1777,193.7351 L550.1777,191.5769 L557.5571,191.5769 L557.5571,193.7351 L555.0918,193.7351 L555.0918,201.8118 L557.5571,201.8118 L557.5571,203.97 L550.1777,203.97 L550.1777,201.8118 L552.6431,201.8118 L552.6431,193.7351 Z " fill="#000000"/><text fill="#000000" font-family="sans-serif" font-size="14" font-style="italic" lengthAdjust="spacing" textLength="88" x="574.25" y="202.761">JSONElement</text><line style="stroke:#181818;stroke-width:0.5;" x1="480" x2="724" y1="213.47" y2="213.47"/><line style="stroke:#181818;stroke-width:0.5;" x1="480" x2="724" y1="221.47" y2="221.47"/><ellipse cx="490" cy="235.2141" fill="#84BE84" rx="3" ry="3" style="stroke:#038048;stroke-width:1.0;"/><text fill="#000000" font-family="sans-serif" font-size="14" lengthAdjust="spacing" textLength="122" x="499" y="239.0052">render(): AnyView</text><ellipse cx="490" cy="251.7024" fill="#84BE84" rx="3" ry="3" style="stroke:#038048;stroke-width:1.0;"/><text fill="#000000" font-family="sans-serif" font-size="14" lengthAdjust="spacing" textLength="220" x="499" y="255.4934">renderCell(key: String): AnyView</text></g><!--class JSONObjectView--><g id="elem_JSONObjectView"><rect codeLine="12" fill="#F1F1F1" height="64.4883" id="JSONObjectView" rx="2.5" ry="2.5" style="stroke:#181818;stroke-width:0.5;" width="262" x="7" y="323.44"/><ellipse cx="79.25" cy="339.44" fill="#F1F1F1" rx="11" ry="11" style="stroke:#181818;stroke-width:1.0;"/><path d="M78.9834,340.503 Q77.1323,339.7974 76.4766,339.0213 Q75.8208,338.2452 75.8208,336.9337 Q75.8208,335.2486 76.8999,334.2857 Q77.979,333.3228 79.8633,333.3228 Q80.7183,333.3228 81.5732,333.5179 Q82.4282,333.7129 83.2666,334.0948 L83.2666,336.4854 Q82.478,335.9293 81.6646,335.6387 Q80.8511,335.3482 80.0542,335.3482 Q79.166,335.3482 78.6929,335.7051 Q78.2197,336.0621 78.2197,336.7261 Q78.2197,337.2408 78.5642,337.577 Q78.9087,337.9131 80.0044,338.3199 L81.0586,338.7183 Q82.5527,339.2662 83.2583,340.171 Q83.9639,341.0757 83.9639,342.4537 Q83.9639,344.3296 82.8557,345.2552 Q81.7476,346.1807 79.5063,346.1807 Q78.585,346.1807 77.6594,345.9608 Q76.7339,345.7408 75.8706,345.3091 L75.8706,342.7774 Q76.8501,343.4747 77.7673,343.815 Q78.6846,344.1553 79.5811,344.1553 Q80.4858,344.1553 80.9839,343.7444 Q81.4819,343.3336 81.4819,342.5948 Q81.4819,342.0386 81.1499,341.6194 Q80.8179,341.2003 80.187,340.9595 Z " fill="#000000"/><text fill="#000000" font-family="sans-serif" font-size="14" lengthAdjust="spacing" textLength="109" x="99.75" y="344.731">JSONObjectView</text><line style="stroke:#181818;stroke-width:0.5;" x1="8" x2="268" y1="355.44" y2="355.44"/><line style="stroke:#181818;stroke-width:0.5;" x1="8" x2="268" y1="363.44" y2="363.44"/><rect fill="#F24D5C" height="6" style="stroke:#C82930;stroke-width:1.0;" width="6" x="15" y="374.1841"/><text fill="#000000" font-family="sans-serif" font-size="14" lengthAdjust="spacing" textLength="236" x="27" y="380.9752">properties: [(String, JSONElement)]</text></g><!--class JSONArrayView--><g id="elem_JSONArrayView"><rect codeLine="16" fill="#F1F1F1" height="64.4883" id="JSONArrayView" rx="2.5" ry="2.5" style="stroke:#181818;stroke-width:0.5;" width="194" x="304" y="323.44"/><ellipse cx="346" cy="339.44" fill="#F1F1F1" rx="11" ry="11" style="stroke:#181818;stroke-width:1.0;"/><path d="M345.7334,340.503 Q343.8823,339.7974 343.2266,339.0213 Q342.5708,338.2452 342.5708,336.9337 Q342.5708,335.2486 343.6499,334.2857 Q344.729,333.3228 346.6133,333.3228 Q347.4683,333.3228 348.3232,333.5179 Q349.1782,333.7129 350.0166,334.0948 L350.0166,336.4854 Q349.228,335.9293 348.4146,335.6387 Q347.6011,335.3482 346.8042,335.3482 Q345.916,335.3482 345.4429,335.7051 Q344.9697,336.0621 344.9697,336.7261 Q344.9697,337.2408 345.3142,337.577 Q345.6587,337.9131 346.7544,338.3199 L347.8086,338.7183 Q349.3027,339.2662 350.0083,340.171 Q350.7139,341.0757 350.7139,342.4537 Q350.7139,344.3296 349.6057,345.2552 Q348.4976,346.1807 346.2563,346.1807 Q345.335,346.1807 344.4094,345.9608 Q343.4839,345.7408 342.6206,345.3091 L342.6206,342.7774 Q343.6001,343.4747 344.5173,343.815 Q345.4346,344.1553 346.3311,344.1553 Q347.2358,344.1553 347.7339,343.7444 Q348.2319,343.3336 348.2319,342.5948 Q348.2319,342.0386 347.8999,341.6194 Q347.5679,341.2003 346.937,340.9595 Z " fill="#000000"/><text fill="#000000" font-family="sans-serif" font-size="14" lengthAdjust="spacing" textLength="102" x="366" y="344.731">JSONArrayView</text><line style="stroke:#181818;stroke-width:0.5;" x1="305" x2="497" y1="355.44" y2="355.44"/><rect fill="none" height="6" style="stroke:#C82930;stroke-width:1.0;" width="6" x="312" y="366.1841"/><text fill="#000000" font-family="sans-serif" font-size="14" lengthAdjust="spacing" textLength="168" x="324" y="372.9752">elements: [JSONElement]</text><line style="stroke:#181818;stroke-width:0.5;" x1="305" x2="497" y1="379.9283" y2="379.9283"/></g><!--class JSONStringView--><g id="elem_JSONStringView"><rect codeLine="20" fill="#F1F1F1" height="64.4883" id="JSONStringView" rx="2.5" ry="2.5" style="stroke:#181818;stroke-width:0.5;" width="138" x="533" y="323.44"/><ellipse cx="548" cy="339.44" fill="#F1F1F1" rx="11" ry="11" style="stroke:#181818;stroke-width:1.0;"/><path d="M547.7334,340.503 Q545.8823,339.7974 545.2266,339.0213 Q544.5708,338.2452 544.5708,336.9337 Q544.5708,335.2486 545.6499,334.2857 Q546.729,333.3228 548.6133,333.3228 Q549.4683,333.3228 550.3232,333.5179 Q551.1782,333.7129 552.0166,334.0948 L552.0166,336.4854 Q551.228,335.9293 550.4146,335.6387 Q549.6011,335.3482 548.8042,335.3482 Q547.916,335.3482 547.4429,335.7051 Q546.9697,336.0621 546.9697,336.7261 Q546.9697,337.2408 547.3142,337.577 Q547.6587,337.9131 548.7544,338.3199 L549.8086,338.7183 Q551.3027,339.2662 552.0083,340.171 Q552.7139,341.0757 552.7139,342.4537 Q552.7139,344.3296 551.6057,345.2552 Q550.4976,346.1807 548.2563,346.1807 Q547.335,346.1807 546.4094,345.9608 Q545.4839,345.7408 544.6206,345.3091 L544.6206,342.7774 Q545.6001,343.4747 546.5173,343.815 Q547.4346,344.1553 548.3311,344.1553 Q549.2358,344.1553 549.7339,343.7444 Q550.2319,343.3336 550.2319,342.5948 Q550.2319,342.0386 549.8999,341.6194 Q549.5679,341.2003 548.937,340.9595 Z " fill="#000000"/><text fill="#000000" font-family="sans-serif" font-size="14" lengthAdjust="spacing" textLength="106" x="562" y="344.731">JSONStringView</text><line style="stroke:#181818;stroke-width:0.5;" x1="534" x2="670" y1="355.44" y2="355.44"/><rect fill="none" height="6" style="stroke:#C82930;stroke-width:1.0;" width="6" x="541" y="366.1841"/><text fill="#000000" font-family="sans-serif" font-size="14" lengthAdjust="spacing" textLength="85" x="553" y="372.9752">value: String</text><line style="stroke:#181818;stroke-width:0.5;" x1="534" x2="670" y1="379.9283" y2="379.9283"/></g><!--class JSONNumberView--><g id="elem_JSONNumberView"><rect codeLine="24" fill="#F1F1F1" height="64.4883" id="JSONNumberView" rx="2.5" ry="2.5" style="stroke:#181818;stroke-width:0.5;" width="152" x="706" y="323.44"/><ellipse cx="721" cy="339.44" fill="#F1F1F1" rx="11" ry="11" style="stroke:#181818;stroke-width:1.0;"/><path d="M720.7334,340.503 Q718.8823,339.7974 718.2266,339.0213 Q717.5708,338.2452 717.5708,336.9337 Q717.5708,335.2486 718.6499,334.2857 Q719.729,333.3228 721.6133,333.3228 Q722.4683,333.3228 723.3232,333.5179 Q724.1782,333.7129 725.0166,334.0948 L725.0166,336.4854 Q724.228,335.9293 723.4146,335.6387 Q722.6011,335.3482 721.8042,335.3482 Q720.916,335.3482 720.4429,335.7051 Q719.9697,336.0621 719.9697,336.7261 Q719.9697,337.2408 720.3142,337.577 Q720.6587,337.9131 721.7544,338.3199 L722.8086,338.7183 Q724.3027,339.2662 725.0083,340.171 Q725.7139,341.0757 725.7139,342.4537 Q725.7139,344.3296 724.6057,345.2552 Q723.4976,346.1807 721.2563,346.1807 Q720.335,346.1807 719.4094,345.9608 Q718.4839,345.7408 717.6206,345.3091 L717.6206,342.7774 Q718.6001,343.4747 719.5173,343.815 Q720.4346,344.1553 721.3311,344.1553 Q722.2358,344.1553 722.7339,343.7444 Q723.2319,343.3336 723.2319,342.5948 Q723.2319,342.0386 722.8999,341.6194 Q722.5679,341.2003 721.937,340.9595 Z " fill="#000000"/><text fill="#000000" font-family="sans-serif" font-size="14" lengthAdjust="spacing" textLength="120" x="735" y="344.731">JSONNumberView</text><line style="stroke:#181818;stroke-width:0.5;" x1="707" x2="857" y1="355.44" y2="355.44"/><rect fill="none" height="6" style="stroke:#C82930;stroke-width:1.0;" width="6" x="714" y="366.1841"/><text fill="#000000" font-family="sans-serif" font-size="14" lengthAdjust="spacing" textLength="93" x="726" y="372.9752">value: Double</text><line style="stroke:#181818;stroke-width:0.5;" x1="707" x2="857" y1="379.9283" y2="379.9283"/></g><!--class JSONNullView--><g id="elem_JSONNullView"><rect codeLine="28" fill="#F1F1F1" height="48" id="JSONNullView" rx="2.5" ry="2.5" style="stroke:#181818;stroke-width:0.5;" width="124" x="893" y="331.69"/><ellipse cx="908" cy="347.69" fill="#F1F1F1" rx="11" ry="11" style="stroke:#181818;stroke-width:1.0;"/><path d="M907.7334,348.753 Q905.8823,348.0474 905.2266,347.2713 Q904.5708,346.4952 904.5708,345.1837 Q904.5708,343.4986 905.6499,342.5357 Q906.729,341.5728 908.6133,341.5728 Q909.4683,341.5728 910.3232,341.7679 Q911.1782,341.9629 912.0166,342.3448 L912.0166,344.7354 Q911.228,344.1793 910.4146,343.8887 Q909.6011,343.5982 908.8042,343.5982 Q907.916,343.5982 907.4429,343.9551 Q906.9697,344.3121 906.9697,344.9761 Q906.9697,345.4908 907.3142,345.827 Q907.6587,346.1631 908.7544,346.5699 L909.8086,346.9683 Q911.3027,347.5162 912.0083,348.421 Q912.7139,349.3257 912.7139,350.7037 Q912.7139,352.5796 911.6057,353.5052 Q910.4976,354.4307 908.2563,354.4307 Q907.335,354.4307 906.4094,354.2108 Q905.4839,353.9908 904.6206,353.5591 L904.6206,351.0274 Q905.6001,351.7247 906.5173,352.065 Q907.4346,352.4053 908.3311,352.4053 Q909.2358,352.4053 909.7339,351.9944 Q910.2319,351.5836 910.2319,350.8448 Q910.2319,350.2886 909.8999,349.8694 Q909.5679,349.4503 908.937,349.2095 Z " fill="#000000"/><text fill="#000000" font-family="sans-serif" font-size="14" lengthAdjust="spacing" textLength="92" x="922" y="352.981">JSONNullView</text><line style="stroke:#181818;stroke-width:0.5;" x1="894" x2="1016" y1="363.69" y2="363.69"/><line style="stroke:#181818;stroke-width:0.5;" x1="894" x2="1016" y1="371.69" y2="371.69"/></g><!--class JSONElementFactory--><g id="elem_JSONElementFactory"><rect codeLine="32" fill="#F1F1F1" height="64.4883" id="JSONElementFactory" rx="2.5" ry="2.5" style="stroke:#181818;stroke-width:0.5;" width="241" x="760.5" y="189.71"/><ellipse cx="807.75" cy="205.71" fill="#F1F1F1" rx="11" ry="11" style="stroke:#181818;stroke-width:1.0;"/><path d="M807.4834,206.773 Q805.6323,206.0674 804.9766,205.2913 Q804.3208,204.5152 804.3208,203.2037 Q804.3208,201.5186 805.3999,200.5557 Q806.479,199.5928 808.3633,199.5928 Q809.2183,199.5928 810.0732,199.7879 Q810.9282,199.9829 811.7666,200.3648 L811.7666,202.7554 Q810.978,202.1993 810.1646,201.9087 Q809.3511,201.6182 808.5542,201.6182 Q807.666,201.6182 807.1929,201.9751 Q806.7197,202.3321 806.7197,202.9961 Q806.7197,203.5108 807.0642,203.847 Q807.4087,204.1831 808.5044,204.5899 L809.5586,204.9883 Q811.0527,205.5362 811.7583,206.441 Q812.4639,207.3457 812.4639,208.7237 Q812.4639,210.5996 811.3557,211.5252 Q810.2476,212.4507 808.0063,212.4507 Q807.085,212.4507 806.1594,212.2308 Q805.2339,212.0108 804.3706,211.5791 L804.3706,209.0474 Q805.3501,209.7447 806.2673,210.085 Q807.1846,210.4253 808.0811,210.4253 Q808.9858,210.4253 809.4839,210.0144 Q809.9819,209.6036 809.9819,208.8648 Q809.9819,208.3086 809.6499,207.8894 Q809.3179,207.4703 808.687,207.2295 Z " fill="#000000"/><text fill="#000000" font-family="sans-serif" font-size="14" lengthAdjust="spacing" textLength="138" x="828.25" y="211.001">JSONElementFactory</text><line style="stroke:#181818;stroke-width:0.5;" x1="761.5" x2="1000.5" y1="221.71" y2="221.71"/><line style="stroke:#181818;stroke-width:0.5;" x1="761.5" x2="1000.5" y1="229.71" y2="229.71"/><ellipse cx="771.5" cy="243.4541" fill="#84BE84" rx="3" ry="3" style="stroke:#038048;stroke-width:1.0;"/><text fill="#000000" font-family="sans-serif" font-size="14" lengthAdjust="spacing" textLength="215" x="780.5" y="247.2452">create(from: Any): JSONElement</text></g><!--link RSJSONViewer to JSONElementFactory--><g id="link_RSJSONViewer_JSONElementFactory"><path codeLine="36" d="M781.87,104.67 C805.11,131.94 829.6765,160.7548 850.1365,184.7448 " fill="none" id="RSJSONViewer-to-JSONElementFactory" style="stroke:#181818;stroke-width:1.0;"/><polygon fill="#181818" points="854.03,189.31,851.2333,179.8666,850.7855,185.5057,845.1464,185.0578,854.03,189.31" style="stroke:#181818;stroke-width:1.0;"/><text fill="#000000" font-family="sans-serif" font-size="13" lengthAdjust="spacing" textLength="29" x="820.38" y="148.0384">uses</text></g><!--link RSJSONViewer to JSONElement--><g id="link_RSJSONViewer_JSONElement"><path codeLine="37" d="M700.42,104.67 C679.91,128.91 659.1757,153.3997 639.7057,176.4097 " fill="none" id="RSJSONViewer-to-JSONElement" style="stroke:#181818;stroke-width:1.0;"/><polygon fill="#181818" points="635.83,180.99,644.697,176.7033,639.0597,177.1731,638.5899,171.5358,635.83,180.99" style="stroke:#181818;stroke-width:1.0;"/><text fill="#000000" font-family="sans-serif" font-size="13" lengthAdjust="spacing" textLength="41" x="672.5" y="148.0384">parses</text></g><!--reverse link JSONElement to JSONObjectView--><g id="link_JSONElement_JSONObjectView"><path codeLine="38" d="M461.2539,262.9144 C390.1139,283.1044 318.69,303.39 249.64,322.99 " fill="none" id="JSONElement-backto-JSONObjectView" style="stroke:#181818;stroke-width:1.0;"/><polygon fill="none" points="478.57,258,459.6157,257.1424,462.892,268.6865,478.57,258" style="stroke:#181818;stroke-width:1.0;"/></g><!--reverse link JSONElement to JSONArrayView--><g id="link_JSONElement_JSONArrayView"><path codeLine="39" d="M526.0965,272.6988 C496.6265,292.0188 476.8,305 449.21,323.09 " fill="none" id="JSONElement-backto-JSONArrayView" style="stroke:#181818;stroke-width:1.0;"/><polygon fill="none" points="541.15,262.83,522.8069,267.681,529.3861,277.7166,541.15,262.83" style="stroke:#181818;stroke-width:1.0;"/></g><!--reverse link JSONElement to JSONStringView--><g id="link_JSONElement_JSONStringView"><path codeLine="40" d="M602,280.83 C602,300.22 602,305.18 602,323.3 " fill="none" id="JSONElement-backto-JSONStringView" style="stroke:#181818;stroke-width:1.0;"/><polygon fill="none" points="602,262.83,596,280.83,608,280.83,602,262.83" style="stroke:#181818;stroke-width:1.0;"/></g><!--reverse link JSONElement to JSONNumberView--><g id="link_JSONElement_JSONNumberView"><path codeLine="41" d="M671.0139,273.4629 C697.4039,292.7829 714.12,305 738.82,323.09 " fill="none" id="JSONElement-backto-JSONNumberView" style="stroke:#181818;stroke-width:1.0;"/><polygon fill="none" points="656.49,262.83,667.4696,278.3041,674.5581,268.6216,656.49,262.83" style="stroke:#181818;stroke-width:1.0;"/></g><!--reverse link JSONElement to JSONNullView--><g id="link_JSONElement_JSONNullView"><path codeLine="42" d="M729.0032,269.1073 C778.8332,287.3473 821.52,303.16 875,323.44 C881.69,325.98 888.69,328.66 895.64,331.35 " fill="none" id="JSONElement-backto-JSONNullView" style="stroke:#181818;stroke-width:1.0;"/><polygon fill="none" points="712.1,262.92,726.9407,274.7417,731.0656,263.4729,712.1,262.92" style="stroke:#181818;stroke-width:1.0;"/></g><!--SRC=[VP71JiCm44Jl-OfLJubAVi12I1M50uTM8X8NnC59jyZ5iQFr1XG1_qwSXDG9eJxui3FxF1exfhfWUCmUiltkIU474dn6q9uKJiwQhMGfmD_TS0tAA8wz8Y1ZKkOr6OJS7Xe17X5zHv4oZ7IK1O87tsaiqV10NWEXEI35YO2DQRgLS7wBMiTls8mld6qjsVM9FNQVdx1WBuoPAx8L4Yjq0fxZVlygp92yp20R8jbC6DWxFI5OdE_rxCdYkzGr_gQUsNTrcICjsRUspZN-iMiTc6Vg4EbU5cof6Mij22LZV2HRTfMrnGLkpvZySvhUBD44h6g7RdNHx5sLfCuNZg-_qdJsDylwMFkoV6vtMJ_N-P_Uz_S3]--></g></svg>